# xmcd
#
# Track frame offsets:
#	150
#	13802
#	26622
#	39065
#	53442
#	66675
#	81990
#	95300
#	111520
#	127742
#	140935
#	152320
#	162590
#	175337
#	189377
#	202295
#
# Disc length: 2897 seconds
#
# Revision: 1
# Processed by: cddbd v1.5.1PL0 Copyright (c) Steve Scherf et al.
# Submitted via: CDex 1.50Beta5
#
DISCID=dd0b4f10
DTITLE=ワイルド・ワンズ - BIG ARTIST BEST COLLECTION/ワイルド・ワンズ
DYEAR=1989
DGENRE=Rock
TTITLE0=想い出の渚
TTITLE1=夕陽と共に
TTITLE2=バラの恋人
TTITLE3=花のヤング・タウン
TTITLE4=青い果実
TTITLE5=赤い靴のマリア
TTITLE6=昨日に逢いたい
TTITLE7=あの頃
TTITLE8=想い出は心の友
TTITLE9=明日に続く道
TTITLE10=愛するアニタ
TTITLE11=ユア・ベイビー
TTITLE12=青空のある限り
TTITLE13=ハロー・ミスター・レイン
TTITLE14=すべてを捧げて
TTITLE15=いいのかな
EXTD=
EXTT0=
EXTT1=
EXTT2=
EXTT3=
EXTT4=
EXTT5=
EXTT6=
EXTT7=
EXTT8=
EXTT9=
EXTT10=
EXTT11=
EXTT12=
EXTT13=
EXTT14=
EXTT15=
PLAYORDER=
